<?xml version="1.0" encoding="UTF-8"?>
<svg width="393px" height="88px" viewBox="0 0 393 88" version="1.1" xmlns="http://www.w3.org/2000/svg" xmlns:xlink="http://www.w3.org/1999/xlink">
    <!-- Generator: Sketch 43.2 (39069) - http://www.bohemiancoding.com/sketch -->
    <title>Horizontal Logo</title>
    <desc>Created with Sketch.</desc>
    <defs></defs>
    <g id="Symbols" stroke="none" stroke-width="1" fill="none" fill-rule="evenodd">
        <g id="Horizontal-Logo">
            <g>
                <g id="Branding-Brand" transform="translate(107.000000, 34.000000)" fill="#333132">
                    <path d="M2.58221098,17.0258959 L4.86212561,17.0258959 C6.01649756,17.0258959 7.14444268,16.9451288 8.00331463,16.2724712 C8.70002195,15.7601425 9.1829122,14.8717041 9.1829122,13.7940055 C9.1829122,12.3667178 8.35166829,11.532526 7.65375976,11.155211 C6.98347927,10.7778959 6.04412561,10.6163616 4.62188171,10.6163616 L2.58221098,10.6163616 L2.58221098,17.0258959 Z M2.58221098,8.83948493 L4.08493659,8.83948493 C5.13119878,8.83948493 7.6009061,8.62370411 7.6009061,5.84989589 C7.6009061,2.88803288 4.70236341,2.83499178 4.13899146,2.83499178 L2.58221098,2.83499178 L2.58221098,8.83948493 Z M3.81706463,0.949621918 C4.80927195,0.949621918 6.60749756,1.03038904 7.92283293,2.08036164 C8.48620488,2.51071781 9.53246707,3.61493699 9.53246707,5.79685479 C9.53246707,6.68529315 9.34387561,8.24759452 7.76186951,9.32408767 C10.2568024,9.94370411 11.168528,12.1256219 11.168528,13.8482521 C11.168528,15.5720877 10.3108573,16.9716493 9.34387561,17.7262795 C7.92283293,18.8570192 6.28557073,18.9100603 5.05071707,18.9100603 L0.596595122,18.9100603 L0.596595122,0.949621918 L3.81706463,0.949621918 Z" id="Fill-1"></path>
                    <path d="M22.1730201,9.27032329 L23.4343006,9.27032329 C25.9028067,9.27032329 27.3779043,8.08654247 27.3779043,5.98539178 C27.3779043,4.98846027 27.0836055,3.99273425 25.9556604,3.34659726 C25.1508433,2.88851507 24.2391177,2.83547397 23.3802457,2.83547397 L22.1730201,2.83547397 L22.1730201,9.27032329 Z M23.0583189,0.94889863 C24.2667457,0.94889863 26.0637701,1.03087123 27.4055323,1.94583014 C28.4517945,2.6462137 29.3635201,4.01925479 29.3635201,5.93114521 C29.3635201,8.67843288 27.5664957,10.697611 24.8565445,10.8856658 L30.5443189,18.9105425 L28.1298677,18.9105425 L22.6823372,11.0472 L22.1730201,11.0472 L22.1730201,18.9105425 L20.1874043,18.9105425 L20.1874043,0.94889863 L23.0583189,0.94889863 Z" id="Fill-3"></path>
                    <path d="M48.1223646,11.9632438 L45.1169134,4.77376438 L42.0586085,11.9632438 L48.1223646,11.9632438 Z M48.9007549,13.8486137 L41.2802183,13.8486137 L39.133639,18.9104219 L36.9330049,18.9104219 L45.1709683,0.086860274 L53.1939134,18.9104219 L50.9932793,18.9104219 L48.9007549,13.8486137 Z" id="Fill-5"></path>
                    <polygon id="Fill-7" points="61.085325 18.910663 61.085325 0.195594521 75.0386909 14.8711014 75.0386909 0.949019178 77.0255079 0.949019178 77.0255079 19.7183342 63.0709409 5.0428274 63.0709409 18.910663"></polygon>
                    <path d="M88.994339,17.0258959 L90.7385098,17.0258959 C92.1607537,17.0258959 94.1187415,16.8643616 95.8629122,15.4105534 C97.2046744,14.2798137 98.2785646,12.5017315 98.2785646,9.94370411 C98.2785646,5.63532055 95.2731134,2.83499178 90.7385098,2.83499178 L88.994339,2.83499178 L88.994339,17.0258959 Z M87.0087232,0.949621918 L90.658028,0.949621918 C92.4550524,0.949621918 95.0040402,1.13767671 97.2587293,3.04956712 C98.8959915,4.42260822 100.317034,6.7118137 100.317034,9.94370411 C100.317034,13.7132384 98.4659549,15.7336219 97.1782476,16.8366356 C95.5421866,18.2374027 93.8244427,18.9100603 90.6316012,18.9100603 L87.0087232,18.9100603 L87.0087232,0.949621918 Z" id="Fill-9"></path>
                    <polygon id="Fill-11" points="109.33603 18.9100603 111.321646 18.9100603 111.321646 0.948416438 109.33603 0.948416438"></polygon>
                    <polygon id="Fill-13" points="121.304621 18.910663 121.304621 0.195594521 135.257987 14.8711014 135.257987 0.949019178 137.244804 0.949019178 137.244804 19.7183342 123.290237 5.0428274 123.290237 18.910663"></polygon>
                    <path d="M156.459151,9.89018082 L163.918724,9.89018082 L163.918724,10.320537 C163.918724,12.3131945 163.328926,14.4673863 162.20098,16.0031671 C161.665237,16.7288658 159.651993,19.2338521 155.546224,19.2338521 C150.23323,19.2338521 146.261999,15.1677699 146.261999,9.94322192 C146.261999,4.71987945 150.260859,0.652591781 155.600279,0.652591781 C157.318023,0.652591781 159.330066,1.08415342 161.074237,2.43067397 C161.879054,3.05029041 162.631017,3.85796164 163.140334,4.55834521 L161.665237,5.90366027 C161.154718,5.17675616 160.56492,4.53061918 159.975121,4.04601644 C159.116249,3.34683836 157.774487,2.53796164 155.627907,2.53796164 C151.307121,2.53796164 148.30167,5.7963726 148.30167,9.97094795 C148.30167,14.8712219 152.19242,17.3484822 155.573852,17.3484822 C157.961877,17.3484822 160.027974,16.1369753 161.046609,14.3335781 C161.369737,13.7682082 161.71809,12.9062904 161.772145,11.7743452 L156.459151,11.7743452 L156.459151,9.89018082 Z" id="Fill-14"></path>
                    <path d="M183.484188,16.0564493 L184.985712,16.0564493 C185.630767,16.0564493 186.596548,16.0299288 187.373737,15.5718466 C188.232609,15.0595178 188.474054,14.1988055 188.474054,13.4984219 C188.474054,12.9318466 188.286663,11.9626411 187.15992,11.4515178 C186.409157,11.1019288 185.522657,11.1019288 184.771895,11.1019288 L183.484188,11.1019288 L183.484188,16.0564493 Z M183.484188,8.40888767 L184.476395,8.40888767 C185.012139,8.40888767 187.186346,8.3546411 187.186346,6.06543562 C187.186346,4.4235726 185.925066,3.80395616 184.504023,3.80395616 L183.484188,3.80395616 L183.484188,8.40888767 Z M184.42234,0.949380822 C185.414548,0.949380822 187.348511,0.949380822 188.797182,2.08012055 C189.843444,2.88899726 190.460871,4.2885589 190.460871,5.7966137 C190.460871,8.11233973 188.930517,9.05502466 188.447627,9.32384658 C189.628426,9.51310685 190.325133,10.0242301 190.781596,10.4557918 C191.855487,11.4780384 192.069304,12.8788055 192.069304,13.8214904 C192.069304,14.871463 191.775005,16.3529973 190.540151,17.4572164 C189.19959,18.6422027 187.562328,18.9110247 186.005548,18.9110247 L179.995846,18.9110247 L179.995846,0.949380822 L184.42234,0.949380822 Z" id="Fill-15"></path>
                    <path d="M204.147806,9.21619726 L205.140013,9.21619726 C205.810294,9.21619726 208.575501,9.13543014 208.575501,6.49663562 C208.575501,3.83132055 205.836721,3.80359452 205.192867,3.80359452 L204.147806,3.80359452 L204.147806,9.21619726 Z M205.836721,0.949019178 C208.306428,0.949019178 209.567709,1.59636164 210.398952,2.29553973 C211.768343,3.45400548 212.170751,4.98858082 212.170751,6.33510137 C212.170751,8.08666301 211.472843,9.62003288 210.078227,10.5627178 C209.621763,10.8857863 208.97791,11.1823342 208.119038,11.3438685 L213.698702,18.910663 L209.35269,18.910663 L204.576641,11.694663 L204.147806,11.694663 L204.147806,18.910663 L200.659465,18.910663 L200.659465,0.949019178 L205.836721,0.949019178 Z" id="Fill-16"></path>
                    <path d="M231.009837,12.2864329 L228.459648,5.82385753 L225.91066,12.2864329 L231.009837,12.2864329 Z M232.029673,15.1410082 L224.811545,15.1410082 L223.227136,18.9105425 L219.443295,18.9105425 L227.145514,0.94889863 L229.883093,0.94889863 L237.369093,18.9105425 L233.611679,18.9105425 L232.029673,15.1410082 Z" id="Fill-17"></path>
                    <polygon id="Fill-18" points="244.830829 18.910663 244.830829 0.949019178 247.246481 0.949019178 258.140341 12.9326904 258.140341 0.949019178 261.628682 0.949019178 261.628682 18.910663 259.214231 18.910663 248.31917 6.90047123 248.31917 18.910663"></polygon>
                    <path d="M274.564495,15.8945534 L275.638385,15.8945534 C276.523684,15.8945534 278.455245,15.8415123 280.012026,14.7107726 C281.43427,13.6861151 282.239087,11.8549918 282.239087,9.94310137 C282.239087,8.05893699 281.460696,6.22660822 280.039654,5.15011507 C278.589782,4.07241644 276.817983,3.96512877 275.638385,3.96512877 L274.564495,3.96512877 L274.564495,15.8945534 Z M275.745294,0.949019178 C278.241428,0.949019178 280.413233,1.21904658 282.398849,2.69937534 C284.573056,4.34244384 285.834337,6.95471781 285.834337,9.94310137 C285.834337,12.9314849 284.599483,15.5172384 282.239087,17.1868274 C280.145361,18.6683616 278.187373,18.910663 275.691239,18.910663 L271.076154,18.910663 L271.076154,0.949019178 L275.745294,0.949019178 Z" id="Fill-19"></path>
                </g>
                <g id="mark">
                    <path d="M75.7574311,87.8065205 L11.7384372,87.8065205 C5.25545549,87.8065205 0.000120121951,82.5325479 0.000120121951,76.0265753 L0.000120121951,11.7805479 C0.000120121951,5.27457534 5.25545549,0.000602739726 11.7384372,0.000602739726 L75.7574311,0.000602739726 C82.2404128,0.000602739726 87.4957482,5.27457534 87.4957482,11.7805479 L87.4957482,76.0265753 C87.4957482,82.5325479 82.2404128,87.8065205 75.7574311,87.8065205" id="Fill-20" fill="#333132"></path>
                    <polygon id="Fill-21" fill="#FFFFFF" points="32.8737744 62.4140603 41.7832195 62.4140603 41.7832195 25.3925808 32.8737744 25.3925808"></polygon>
                    <path d="M45.9025616,44.7095452 L45.9025616,62.4144219 L48.6425433,62.4144219 C53.4942689,62.4144219 57.4630982,58.4303123 57.4630982,53.5613808 C57.4630982,48.6924493 53.4942689,44.7095452 48.6425433,44.7095452 L45.9025616,44.7095452 Z" id="Fill-22" fill="#FFFFFF"></path>
                    <path d="M45.9024415,25.3923397 L45.9024415,40.7115726 L46.8982524,40.7115726 C51.0965146,40.7115726 54.5308012,37.2651068 54.5308012,33.0519562 C54.5308012,28.8388055 51.0965146,25.3923397 46.8982524,25.3923397 L45.9024415,25.3923397 Z" id="Fill-23" fill="#FFFFFF"></path>
                </g>
            </g>
        </g>
    </g>
</svg>